<svg width="40" height="23" viewBox="0 0 40 23" fill="none" xmlns="http://www.w3.org/2000/svg">
<path d="M4.84713 20.1112C4.84713 11.8151 11.6367 5.08983 20.0121 5.08983C28.3874 5.08983 35.177 11.8151 35.177 20.1112" stroke="#CF47FF" stroke-width="4" stroke-linecap="round"/>
<path d="M6.36364 4.58983H33.6605" stroke="white"/>
<path d="M32.4993 4.33873L35.9353 0.935271L39.3712 4.33873L35.9353 7.74219L32.4993 4.33873ZM0.652915 4.33872L4.0889 0.935258L7.52489 4.33872L4.0889 7.74217L0.652915 4.33872Z" fill="#FC6FC4" stroke="white" stroke-width="0.5"/>
<path d="M23.8033 4.33873C23.8033 6.41275 22.1059 8.09407 20.0121 8.09407C17.9183 8.09407 16.2209 6.41275 16.2209 4.33873C16.2209 2.26471 17.9183 0.583389 20.0121 0.583389C22.1059 0.583389 23.8033 2.26471 23.8033 4.33873Z" fill="white"/>
</svg>
