<svg width="41" height="24" viewBox="0 0 41 24" fill="none" xmlns="http://www.w3.org/2000/svg">
<path d="M0 3.84615C0 2.74158 0.895431 1.84615 2 1.84615H15.6154C16.1677 1.84615 16.6154 2.29387 16.6154 2.84615V22C16.6154 23.1046 15.72 24 14.6154 24H4C1.79086 24 0 22.2091 0 20V3.84615Z" fill="#E28FFF"/>
<rect x="16.6154" y="3.69231" width="7.38462" height="9.23077" fill="#AD00FF"/>
<path d="M40.6154 3.84615C40.6154 2.74158 39.72 1.84615 38.6154 1.84615H25C24.4477 1.84615 24 2.29387 24 2.84615V22C24 23.1046 24.8954 24 26 24H36.6154C38.8245 24 40.6154 22.2091 40.6154 20V3.84615Z" fill="#E28FFF"/>
<circle cx="8.30769" cy="10.1539" r="6.46154" fill="#2D333D"/>
<circle cx="32.3077" cy="10.1539" r="6.46154" fill="#2D333D"/>
<path d="M7.38462 6.46154C7.38462 5.95174 7.79789 5.53847 8.30769 5.53847C8.8175 5.53847 9.23077 5.95174 9.23077 6.46154V13.8462C9.23077 14.356 8.8175 14.7692 8.30769 14.7692C7.79789 14.7692 7.38462 14.356 7.38462 13.8462V6.46154Z" fill="white"/>
<path d="M4.61538 11.0769C4.10558 11.0769 3.69231 10.6636 3.69231 10.1538C3.69231 9.64405 4.10558 9.23077 4.61539 9.23077L12 9.23077C12.5098 9.23077 12.9231 9.64405 12.9231 10.1538C12.9231 10.6636 12.5098 11.0769 12 11.0769L4.61538 11.0769Z" fill="white"/>
<path d="M3.69231 1.84615L3.69231 1C3.69231 0.447715 4.14002 -2.57989e-07 4.69231 -2.8213e-07L13.7692 -6.78895e-07C14.3215 -7.03036e-07 14.7692 0.447715 14.7692 0.999999L14.7692 1.84615L3.69231 1.84615Z" fill="#AD00FF"/>
<path d="M25.8462 1.84615L25.8462 1C25.8462 0.447715 26.2939 -2.57989e-07 26.8462 -2.8213e-07L35.9231 -6.78895e-07C36.4754 -7.03036e-07 36.9231 0.447715 36.9231 0.999999L36.9231 1.84615L25.8462 1.84615Z" fill="#AD00FF"/>
<circle cx="32.3077" cy="6.46154" r="1.17308" fill="#FC6FC4" stroke="white" stroke-width="0.5"/>
<circle cx="32.3077" cy="13.8462" r="1.17308" fill="#FC6FC4" stroke="white" stroke-width="0.5"/>
<circle cx="28.6154" cy="10.1538" r="1.17308" transform="rotate(-90 28.6154 10.1538)" fill="#FC6FC4" stroke="white" stroke-width="0.5"/>
<path d="M24 14.7692C24 13.5255 22.7692 12.9555 22.1538 12.9231L24 12.9231L24 14.7692Z" fill="#AD00FF"/>
<path d="M18.4615 12.9231C17.2178 12.9231 16.6478 14.1538 16.6154 14.7692V12.9231H18.4615Z" fill="#AD00FF"/>
<circle cx="36" cy="10.1538" r="1.17308" transform="rotate(-90 36 10.1538)" fill="#FC6FC4" stroke="white" stroke-width="0.5"/>
</svg>
