<svg width="3563" height="1361" viewBox="0 0 3563 1361" fill="none" xmlns="http://www.w3.org/2000/svg">
<rect width="3563" height="1361" fill="#080E2F"/>
<path d="M749.5 345H2764L2611 528.75L2915 697.5L2611 828.25L2855 1000H779.5L902.125 828.25L744.5 697.5L953 528.75L749.5 345Z" fill="#FF9100"/>
<mask id="mask0" mask-type="alpha" maskUnits="userSpaceOnUse" x="744" y="345" width="2171" height="655">
<path d="M749.5 345H2764L2611 528.75L2915 697.5L2611 828.25L2855 1000H779.5L902.125 828.25L744.5 697.5L953 528.75L749.5 345Z" fill="#00E0FF"/>
</mask>
<g mask="url(#mask0)">
<rect x="664" y="319.082" width="151" height="771" transform="rotate(-15 664 319.082)" fill="#FF740F"/>
<rect x="1054" y="319.082" width="151" height="771" transform="rotate(-15 1054 319.082)" fill="#FF740F"/>
<rect x="2374" y="319.082" width="151" height="771" transform="rotate(-15 2374 319.082)" fill="#FF740F"/>
<rect x="2174" y="319.082" width="151" height="771" transform="rotate(-15 2174 319.082)" fill="#FF740F"/>
<rect x="2564" y="319.082" width="151" height="771" transform="rotate(-15 2564 319.082)" fill="#FF740F"/>
<rect x="864" y="319.082" width="151" height="771" transform="rotate(-15 864 319.082)" fill="#FF740F"/>
</g>
<path d="M1415.17 393.547L1302.44 691.906H1497.2V773H1572.91V691.906H1610.88V616.203H1572.91V469.25H1497.2V616.203H1416.34L1497.2 394.016L1415.17 393.547ZM1634.31 584.094C1634.31 685.578 1687.98 775.109 1781.5 775.109C1826.27 775.109 1862.36 756.125 1889.55 718.156C1915.56 681.828 1928.69 637.062 1928.69 583.859C1928.69 531.125 1915.56 486.594 1889.55 450.266C1862.36 412.297 1826.5 393.078 1781.5 393.078C1688.45 393.078 1634.31 482.609 1634.31 584.094ZM1827.91 494.094C1844.31 517.531 1852.52 547.297 1852.52 583.859C1852.52 620.891 1844.31 650.656 1827.91 673.625C1815.72 690.031 1800.25 698.234 1781.27 698.234C1762.28 698.234 1746.81 690.031 1734.86 673.625C1718.22 650.656 1710.02 620.656 1710.02 583.859C1710.02 547.766 1718.22 517.766 1734.86 494.094C1746.81 477.688 1762.28 469.484 1781.27 469.484C1800.25 469.484 1815.72 477.688 1827.91 494.094ZM2064.86 393.547L1952.12 691.906H2146.89V773H2222.59V691.906H2260.56V616.203H2222.59V469.25H2146.89V616.203H2066.03L2146.89 394.016L2064.86 393.547ZM1319.7 792.406V921.156H1345.02V851.234L1420.95 923.578V794.75H1395.56V864.672L1319.7 792.406ZM1495.8 794.047C1478.22 794.047 1463.14 800.375 1450.64 812.875C1438.14 825.531 1431.89 840.609 1431.89 858.109C1431.89 875.766 1438.14 890.766 1450.64 903.266C1463.06 915.609 1478.14 921.859 1495.8 921.859C1513.38 921.859 1528.45 915.688 1540.95 903.266C1553.45 890.844 1559.78 875.766 1559.78 858.109C1559.78 840.531 1553.45 825.453 1540.95 812.875C1528.38 800.375 1513.3 794.047 1495.8 794.047ZM1495.72 819.594C1506.27 819.594 1515.25 823.344 1522.75 830.844C1530.33 838.422 1534.08 847.484 1534.08 858.031C1534.08 868.656 1530.33 877.641 1522.75 885.141C1515.25 892.562 1506.19 896.312 1495.72 896.312C1485.09 896.312 1476.11 892.562 1468.61 885.141C1461.11 877.641 1457.36 868.578 1457.36 858.031C1457.36 847.562 1461.11 838.5 1468.61 830.922C1476.03 823.422 1485.09 819.594 1495.72 819.594ZM1553.77 795.062V820.141H1584.78V921H1610.17V820.141H1641.11V795.062H1553.77ZM1698.92 794.75V921.156H1724.23V870.609H1762.2V845.375H1724.23V819.984H1774.86V794.75H1698.92ZM1842.36 794.047C1824.78 794.047 1809.7 800.375 1797.2 812.875C1784.7 825.531 1778.45 840.609 1778.45 858.109C1778.45 875.766 1784.7 890.766 1797.2 903.266C1809.62 915.609 1824.7 921.859 1842.36 921.859C1859.94 921.859 1875.02 915.688 1887.52 903.266C1900.02 890.844 1906.34 875.766 1906.34 858.109C1906.34 840.531 1900.02 825.453 1887.52 812.875C1874.94 800.375 1859.86 794.047 1842.36 794.047ZM1842.28 819.594C1852.83 819.594 1861.81 823.344 1869.31 830.844C1876.89 838.422 1880.64 847.484 1880.64 858.031C1880.64 868.656 1876.89 877.641 1869.31 885.141C1861.81 892.562 1852.75 896.312 1842.28 896.312C1831.66 896.312 1822.67 892.562 1815.17 885.141C1807.67 877.641 1803.92 868.578 1803.92 858.031C1803.92 847.562 1807.67 838.5 1815.17 830.922C1822.59 823.422 1831.66 819.594 1842.28 819.594ZM1968.14 896.547C1954.23 896.547 1942.67 884.984 1942.67 871.234V795.062H1917.2V871.312C1917.2 885.375 1922.12 897.406 1932.12 907.328C1942.05 917.25 1954.08 922.172 1968.22 922.172C1982.12 922.172 1994.16 917.25 2004.16 907.328C2014.08 897.406 2019.08 885.375 2019.08 871.312V795.062H1993.61V871.234C1993.61 884.906 1981.81 896.547 1968.14 896.547ZM2034.7 792.406V921.156H2060.02V851.234L2135.95 923.578V794.75H2110.56V864.672L2034.7 792.406ZM2185.09 795.141H2151.58V921H2185.09C2203.38 921 2218.69 914.906 2231.11 902.562C2242.36 891.391 2247.98 876.625 2247.98 858.188C2247.98 839.75 2242.36 824.906 2231.11 813.578C2220.33 802.953 2204.86 795.062 2185.09 795.062V795.141ZM2222.75 857.953C2222.75 880.766 2207.91 895.766 2185.25 895.766H2176.81V820.141H2185.02C2207.67 820.141 2222.75 835.453 2222.75 857.953Z" fill="#080E2F"/>
<path d="M2888 414C3095 331 3125 437 3296.5 384C3468 331 3358.76 45.7239 3174 146.5C3071.5 202.409 3150 337 3174 301.5" stroke="#FF740F" stroke-width="42" stroke-linecap="round"/>
<path d="M3046.44 890.388C3186.9 990.977 3185.93 886.634 3305.37 960.514C3424.81 1034.39 3272.51 1265.47 3152.33 1159.68C3085.66 1100.98 3129.95 1053.37 3170.07 1048.85" stroke="#FF740F" stroke-width="42" stroke-linecap="round"/>
<path d="M3036 668.5C3172 668.5 3272.5 568 3521 668.5" stroke="#FF740F" stroke-width="42" stroke-linecap="round"/>
<path d="M678.493 355.371C458.029 322.132 453.225 432.229 274.197 420.04C95.1684 407.851 135.83 104.997 338.742 160.655C451.315 191.533 405.904 340.613 374.392 311.565" stroke="#FF740F" stroke-width="42" stroke-linecap="round"/>
<path d="M521.162 923.296C407.585 1053.48 384.548 951.712 285.288 1051.07C186.029 1150.43 387.383 1340.31 480.017 1209.72C531.41 1137.26 477.362 1101.12 437.272 1105.94" stroke="#FF740F" stroke-width="42" stroke-linecap="round"/>
<path d="M592.853 636.593C460.496 667.86 339.927 594.617 120.844 748.097" stroke="#FF740F" stroke-width="42" stroke-linecap="round"/>
</svg>
