<svg width="36" height="36" viewBox="0 0 36 36" fill="none" xmlns="http://www.w3.org/2000/svg">
<circle cx="18" cy="18" r="18" fill="#020F22"/>
<path fill-rule="evenodd" clip-rule="evenodd" d="M14.3561 14.064C14.2548 14.3774 13.9641 14.5896 13.6362 14.5896H5.79189C5.05864 14.5896 4.75377 15.5324 5.34698 15.9654L11.6932 20.5983C11.9585 20.792 12.0695 21.1353 11.9681 21.4487L9.54411 28.9449C9.31752 29.6456 10.1157 30.2283 10.7089 29.7952L17.0551 25.1623C17.3204 24.9687 17.6796 24.9687 17.9449 25.1623L24.2911 29.7952C24.8843 30.2283 25.6825 29.6456 25.4559 28.9449L23.0319 21.4487C22.9305 21.1353 23.0415 20.792 23.3068 20.5983L29.653 15.9654C30.2462 15.5324 29.9414 14.5896 29.2081 14.5896H21.3638C21.0359 14.5896 20.7452 14.3774 20.6439 14.064L18.2199 6.56779C17.9933 5.86708 17.0067 5.86708 16.7801 6.56779L14.3561 14.064ZM23.0136 11.5473L21.0994 5.62768C19.9665 2.12409 15.0335 2.12412 13.9006 5.62769L11.9864 11.5473H5.79189C2.12561 11.5473 0.601271 16.2613 3.56734 18.4267L8.57879 22.0852L6.66459 28.0048C5.53164 31.5084 9.52249 34.4218 12.4886 32.2565L17.5 28.598L22.5114 32.2565C25.4775 34.4218 29.4683 31.5084 28.3354 28.0048L26.4212 22.0852L31.4327 18.4267C34.3987 16.2613 32.8744 11.5473 29.2081 11.5473H23.0136Z" fill="white"/>
</svg>
