<svg width="36" height="36" viewBox="0 0 36 36" fill="none" xmlns="http://www.w3.org/2000/svg">
<circle cx="18" cy="18" r="18" fill="#020F22"/>
<path d="M17.697 9C17.0118 9 16.4563 9.5555 16.4563 10.2408V16.4563H10.2408C9.5555 16.4563 9 17.0118 9 17.6971C9 18.3824 9.5555 18.9378 10.2408 18.9378H17.697C18.3823 18.9378 18.9378 18.3823 18.9378 17.697V10.2408C18.9378 9.5555 18.3823 9 17.697 9Z" fill="white"/>
<path d="M17.933 3.86597C10.164 3.86597 3.866 10.164 3.866 17.933C3.866 25.702 10.164 32 17.933 32C25.702 32 32 25.702 32 17.933C31.9918 10.1675 25.6986 3.87427 17.933 3.86597ZM17.933 28.9904C11.2738 28.9904 6.87555 24.5921 6.87555 17.933C6.87555 11.2738 11.2738 6.87552 17.933 6.87552C24.5921 6.87552 28.9904 11.2738 28.9904 17.933C28.9833 24.5892 24.5892 28.9832 17.933 28.9904Z" fill="white"/>
</svg>
